<svg width="2045" height="2311" viewBox="0 0 2045 2311" fill="none" xmlns="http://www.w3.org/2000/svg">
<g clip-path="url(#clip0_8_541)">
<path d="M864.383 432.351C864.383 432.351 362.395 510.918 400.461 1226.42C400.599 1229.08 342.419 1267.71 337.862 1271.84C297.293 1308.54 263.256 1355.55 248.372 1410.53C195.371 1606.33 384.861 1808.07 538.095 1861.62C595.331 1881.62 655.83 1891.33 716.448 1893.1C1110.51 1904.57 1632.22 1654.05 1659.02 1164.78C1659.98 1147.22 1660.22 1129.65 1659.77 1112.12C1657.39 1019.22 1634.97 928.74 1601.19 844.733C1601.21 844.736 1381.89 300.601 864.383 432.351Z" fill="#8C5A2B"/>
<path opacity="0.3" d="M638.869 1268.93C638.869 1268.93 559.238 1193.14 497.591 1264.4Z" fill="#452811"/>
<path d="M1381.36 1646.65C1646.32 1779.49 1886.94 1446.16 1809.96 1258.84C1760.85 1139.36 1617.57 1130.1 1534.51 1239.27C1485.49 1303.7 1445.81 1386.05 1423.27 1464.83" fill="#8C5A2B"/>
<path opacity="0.3" d="M1599.71 1349.2C1565.61 1383.93 1538.18 1435.42 1504.48 1464.15C1510.72 1416.09 1520.68 1364.77 1544.02 1321.45C1567.72 1277.46 1610.81 1241.21 1654.67 1244.19C1709.02 1247.88 1753.76 1311.22 1759.5 1368.65C1756.07 1334.28 1686.98 1311.04 1660.61 1314.3C1619.29 1392.2 1603.25 1545.71 1603.25 1545.71C1568.87 1458.82 1582.82 1390.46 1599.71 1349.2Z" fill="#452811"/>
</g>
<path d="M552.3 1452.97C516.596 1453.96 482.359 1443.74 452.873 1413.07C437.446 1397.04 421.801 1388.22 399.664 1401.93C346.666 1434.78 334.188 1516.83 348.435 1571.84C364.075 1632.21 411.191 1680.88 465.49 1712.62C611.601 1798.04 723.671 1778.81 873.186 1724.21C990.873 1681.25 1149.98 1594.63 1109.65 1445.57C1059.71 1261.01 844.457 1349.62 723.007 1399.41C671.439 1420.57 609.955 1451.37 552.3 1452.97Z" fill="white"/>
<mask id="mask0_8_541" style="mask-type:alpha" maskUnits="userSpaceOnUse" x="342" y="1333" width="775" height="438">
<path d="M552.299 1452.97C516.595 1453.96 482.358 1443.74 452.873 1413.07C437.446 1397.04 421.801 1388.22 399.664 1401.93C346.666 1434.78 334.188 1516.83 348.434 1571.84C364.074 1632.21 411.191 1680.88 465.49 1712.62C611.6 1798.04 723.671 1778.81 873.186 1724.21C990.872 1681.25 1149.98 1594.63 1109.65 1445.57C1059.71 1261.01 844.457 1349.62 723.007 1399.41C671.438 1420.57 609.954 1451.37 552.299 1452.97Z" fill="white"/>
</mask>
<g mask="url(#mask0_8_541)">
<path fill-rule="evenodd" clip-rule="evenodd" d="M1039.76 1657.98L886.801 1271.66L865.51 1280.1L1018.47 1666.42L1039.76 1657.98ZM725.467 1782.8L619.818 1377.43L597.658 1383.22L703.306 1788.59L725.467 1782.8ZM411.025 1684.93L469.321 1387.73L446.848 1383.32L388.552 1680.51L411.025 1684.93Z" fill="#D1D3D4"/>
</g>
<path d="M876.575 1182.49C842.863 1181.88 809.114 1194.03 779.257 1212.17C761.351 1193.87 752.742 1162.59 759.471 1129.93C768.909 1084.08 804.605 1053.34 839.199 1061.28C873.793 1069.21 894.169 1112.81 884.717 1158.66C882.958 1167.26 880.016 1175.12 876.575 1182.49Z" fill="#2A1200"/>
<path d="M434.715 1188.08C429.744 1177.09 426.826 1163.67 427.11 1149.02C427.795 1112.59 447.295 1083.21 470.666 1083.41C494.038 1083.6 512.424 1113.29 511.737 1149.72C511.358 1169.76 505.164 1187.45 495.898 1199.47C476.391 1191.9 455.672 1188.29 434.715 1188.08Z" fill="#2A1200"/>
<path d="M750.056 913.344C802.284 904.848 858.251 924.368 895.821 963.961C907.936 976.726 911.325 999.368 898.667 1013.78C886.975 1027.12 865.703 1031.2 852.738 1017.51C848.851 1013.41 844.793 1009.53 840.49 1005.92C839.151 1004.8 835.435 1002.81 834.265 1001.15C833.613 1000.72 832.976 1000.29 832.31 999.876C828.206 997.292 823.988 994.927 819.668 992.781C817.192 991.555 814.695 990.418 812.165 989.339C811.367 989.003 810.567 988.682 809.754 988.36C807.533 987.974 804.985 986.772 802.96 986.219C800.319 985.496 797.67 984.864 794.988 984.305C790.312 983.332 785.589 982.598 780.845 982.121C780.18 982.054 779.527 982.003 778.86 981.951C776.301 981.963 773.747 981.915 771.181 982.019C765.725 982.246 760.296 982.854 754.889 983.723C738.012 986.475 720.51 969.855 720.006 951.602C719.479 931.508 731.976 916.291 750.056 913.344Z" fill="#070707"/>
<path d="M399.415 973.347C418.381 947.242 446.249 930.112 476.313 925.14C484.427 923.799 493.899 926.909 500.227 932.326C506.464 937.659 511.698 947.062 512.243 955.839C512.803 964.952 511.005 974.731 505.315 981.897C499.548 989.164 492.31 993.778 483.501 995.247C482.057 995.483 480.655 995.89 479.219 996.203C474.981 997.665 470.885 999.471 466.889 1001.59C462.343 1004.67 458.087 1008.16 454.105 1012.07C452.81 1013.63 451.435 1015.12 450.23 1016.77C445.031 1023.91 436.694 1029 428.416 1030.12C420.491 1031.19 410.626 1028.64 404.503 1022.92C398.158 1017 393.068 1008.79 392.487 999.405C391.904 990.047 393.918 980.908 399.415 973.347Z" fill="#070707"/>
<mask id="mask1_8_541" style="mask-type:alpha" maskUnits="userSpaceOnUse" x="248" y="711" width="253" height="429">
<path d="M399.141 1139.32C401.134 951.713 442.924 813.41 500.736 711.664C431.243 711.664 284.612 746.411 254.031 885.398C223.45 1024.39 338.029 1112.59 399.141 1139.32Z" fill="#C4C4C4"/>
</mask>
<g mask="url(#mask1_8_541)">
<ellipse rx="170.108" ry="169.916" transform="matrix(-1 0 0 1 470.274 937.263)" fill="#070707"/>
</g>
<path fill-rule="evenodd" clip-rule="evenodd" d="M453.082 864.531C500.861 864.531 544.19 844.972 575.883 813.228C607.932 844.972 651.748 864.531 700.064 864.531C760.929 864.531 814.652 833.492 846.709 786.156C882.445 833.79 938.874 864.531 1002.37 864.531C1030.34 864.531 1056.94 858.566 1081.01 847.819C1103.3 905.591 1151.44 950.18 1210.97 966.893C1205.1 985.793 1201.93 1005.91 1201.93 1026.79C1201.93 1083.2 1225.07 1134.13 1262.22 1170.31C1265.46 1317.81 1333.89 1394.31 1376.24 1416.46C1386.43 1424.74 1429.76 1422.19 1429.76 1422.19C1442.75 1362.44 1489.3 1251.07 1581.58 1195.97C1588.63 1196.75 1595.78 1197.15 1603.03 1197.15C1711.06 1197.15 1798.64 1108.16 1798.64 998.391C1798.64 941.645 1775.24 890.453 1737.7 854.237C1768.25 819.173 1786.79 773.066 1786.79 722.559C1786.79 617.5 1706.57 531.479 1604.98 524.284C1603.12 416.158 1517.15 329.092 1411.37 329.092C1382.99 329.092 1356.03 335.362 1331.73 346.627C1301.48 276.596 1232.63 227.683 1152.54 227.683C1108.45 227.683 1067.78 242.5 1035.07 267.499C1000.34 214.145 941.14 179.007 873.94 179.007C792.823 179.007 723.356 230.206 694.536 302.84C669.787 291.052 642.205 284.472 613.126 284.472C506.185 284.472 419.492 373.461 419.492 483.234C419.492 491.121 419.939 498.901 420.81 506.548C339.103 522.105 277.23 595.647 277.23 684.023C277.23 783.715 355.962 864.531 453.082 864.531Z" fill="#070707"/>
<path fill-rule="evenodd" clip-rule="evenodd" d="M216.427 1101.59L403.698 1094.86L405.607 1054.77L215.574 1063.42L216.427 1101.59Z" fill="#000722"/>
<path fill-rule="evenodd" clip-rule="evenodd" d="M884.446 862.819C988.297 879.183 1060.43 985.611 1041.89 1103.34C1023.35 1221.08 922.009 1300.17 818.159 1283.81C714.308 1267.45 642.178 1161.02 660.716 1043.28C679.254 925.55 780.596 846.456 884.446 862.819ZM1082.54 1062.05C1080.56 945.024 1002.77 842.809 890.385 825.101C763.095 805.044 644.723 901.796 623.371 1037.4C623.367 1037.43 623.363 1037.45 623.359 1037.48C619.43 1035.9 615.145 1034.38 610.576 1033.05C596.683 1029.01 579.19 1026.53 560.978 1030.33C558.652 982.608 544.778 938.787 522.202 904.181C494.139 861.162 451.881 831.54 401.637 828.91C351.47 826.285 305.633 851.213 271.981 890.785C238.319 930.369 215.883 985.504 211.62 1046.74C207.356 1107.98 221.973 1165.18 250.014 1208.16C278.077 1251.18 320.335 1280.8 370.579 1283.43C420.746 1286.06 466.583 1261.13 500.235 1221.56C533.035 1182.99 555.177 1129.65 560.234 1070.29C573.322 1064.93 587.199 1066.01 600.007 1069.73C607.986 1072.05 614.957 1075.27 620.032 1077.99C619.143 1197.74 697.729 1303.49 812.22 1321.53C939.51 1341.58 1057.88 1244.83 1079.23 1109.23C1079.66 1106.49 1080.05 1103.76 1080.4 1101.03L1410.35 1047.86C1472.24 1039.3 1534.03 1042.14 1579.66 1057.46C1625.43 1072.84 1649.58 1129.38 1650.31 1164.5L1688.11 1163.59C1686.91 1105.21 1644.52 1038.98 1591.69 1021.24C1538.76 1003.46 1470.64 1000.98 1405.1 1010.07L1404.9 1010.1L1082.54 1062.05ZM490.603 925.243C513.643 960.561 526.618 1009.28 522.875 1063.03C519.134 1116.78 499.484 1163.92 471.574 1196.74C443.653 1229.58 408.432 1247.18 372.648 1245.31C336.941 1243.44 304.63 1222.38 281.613 1187.1C258.573 1151.78 245.599 1103.06 249.341 1049.31C253.082 995.564 272.732 948.423 300.642 915.602C328.563 882.768 363.784 865.161 399.568 867.034C435.276 868.903 467.586 889.959 490.603 925.243Z" fill="#181818"/>
<defs>
<clipPath id="clip0_8_541">
<rect width="1706" height="1782" fill="white" transform="matrix(-1 0 0 1 1873 285)"/>
</clipPath>
</defs>
</svg>
