<svg width="1903" height="1903" viewBox="0 0 1903 1903" fill="none" xmlns="http://www.w3.org/2000/svg">
<g clip-path="url(#clip0_8_541)">
<g clip-path="url(#clip1_8_541)">
<path d="M793.383 340.351C793.383 340.351 291.395 418.918 329.461 1134.42C329.599 1137.08 271.419 1175.71 266.862 1179.84C226.293 1216.54 192.256 1263.55 177.372 1318.53C124.371 1514.33 313.861 1716.07 467.095 1769.62C524.331 1789.62 584.83 1799.33 645.448 1801.1C1039.51 1812.57 1561.22 1562.05 1588.02 1072.78C1588.98 1055.22 1589.22 1037.65 1588.77 1020.12C1586.39 927.216 1563.97 836.74 1530.19 752.733C1530.21 752.736 1310.89 208.601 793.383 340.351Z" fill="#8C5A2B"/>
<path opacity="0.3" d="M567.869 1176.93C567.869 1176.93 488.238 1101.14 426.591 1172.4L567.869 1176.93Z" fill="#452811"/>
<path d="M1310.36 1554.65C1575.32 1687.49 1815.94 1354.16 1738.96 1166.84C1689.85 1047.36 1546.57 1038.1 1463.51 1147.27C1414.49 1211.7 1374.81 1294.05 1352.27 1372.83" fill="#8C5A2B"/>
<path opacity="0.3" d="M1528.71 1257.2C1494.61 1291.93 1467.18 1343.42 1433.48 1372.15C1439.72 1324.09 1449.68 1272.77 1473.02 1229.45C1496.72 1185.46 1539.81 1149.21 1583.67 1152.19C1638.02 1155.88 1682.76 1219.22 1688.5 1276.65C1685.07 1242.28 1615.98 1219.04 1589.61 1222.3C1548.29 1300.2 1532.25 1453.71 1532.25 1453.71C1497.87 1366.82 1511.82 1298.46 1528.71 1257.2Z" fill="#452811"/>
</g>
<path d="M481.3 1360.97C445.596 1361.96 411.359 1351.74 381.873 1321.07C366.446 1305.04 350.801 1296.22 328.664 1309.93C275.666 1342.78 263.188 1424.83 277.435 1479.84C293.075 1540.21 340.191 1588.88 394.49 1620.62C540.601 1706.04 652.671 1686.81 802.186 1632.21C919.873 1589.25 1078.98 1502.63 1038.65 1353.57C988.706 1169.01 773.457 1257.62 652.007 1307.41C600.439 1328.57 538.955 1359.37 481.3 1360.97Z" fill="white"/>
<mask id="mask0_8_541" style="mask-type:alpha" maskUnits="userSpaceOnUse" x="271" y="1241" width="775" height="438">
<path d="M481.299 1360.97C445.595 1361.96 411.358 1351.74 381.873 1321.07C366.446 1305.04 350.8 1296.22 328.664 1309.93C275.666 1342.78 263.188 1424.83 277.434 1479.84C293.074 1540.21 340.191 1588.88 394.49 1620.62C540.6 1706.04 652.671 1686.81 802.186 1632.21C919.872 1589.25 1078.98 1502.63 1038.65 1353.57C988.705 1169.01 773.457 1257.62 652.007 1307.41C600.438 1328.57 538.954 1359.37 481.299 1360.97Z" fill="white"/>
</mask>
<g mask="url(#mask0_8_541)">
<path fill-rule="evenodd" clip-rule="evenodd" d="M968.757 1565.98L815.801 1179.66L794.51 1188.1L947.466 1574.42L968.757 1565.98ZM654.467 1690.8L548.818 1285.43L526.658 1291.22L632.306 1696.59L654.467 1690.8ZM340.025 1592.93L398.321 1295.73L375.848 1291.32L317.552 1588.51L340.025 1592.93Z" fill="#D1D3D4"/>
</g>
<path d="M805.575 1090.49C771.863 1089.88 738.114 1102.03 708.257 1120.17C690.351 1101.87 681.742 1070.59 688.471 1037.93C697.909 992.081 733.605 961.341 768.199 969.275C802.793 977.209 823.169 1020.81 813.717 1066.66C811.958 1075.26 809.016 1083.12 805.575 1090.49Z" fill="#2A1200"/>
<path d="M363.715 1096.08C358.744 1085.09 355.826 1071.67 356.11 1057.02C356.795 1020.59 376.295 991.21 399.666 991.411C423.038 991.597 441.424 1021.29 440.737 1057.72C440.358 1077.76 434.164 1095.45 424.898 1107.47C405.391 1099.9 384.672 1096.29 363.715 1096.08Z" fill="#2A1200"/>
<path d="M679.056 821.344C731.284 812.848 787.251 832.368 824.821 871.961C836.936 884.726 840.325 907.368 827.667 921.782C815.975 935.118 794.703 939.197 781.738 925.515C777.851 921.413 773.793 917.526 769.49 913.923C768.151 912.801 764.435 910.809 763.265 909.153C762.613 908.722 761.976 908.293 761.31 907.876C757.206 905.292 752.988 902.927 748.668 900.781C746.192 899.555 743.695 898.418 741.165 897.339C740.367 897.003 739.567 896.682 738.754 896.36C736.533 895.974 733.985 894.772 731.96 894.219C729.319 893.496 726.67 892.864 723.988 892.305C719.312 891.332 714.589 890.598 709.845 890.121C709.18 890.054 708.527 890.003 707.86 889.951C705.301 889.963 702.747 889.915 700.181 890.019C694.725 890.246 689.296 890.854 683.889 891.723C667.012 894.475 649.51 877.855 649.006 859.602C648.479 839.508 660.976 824.291 679.056 821.344Z" fill="#070707"/>
<path d="M328.415 881.347C347.381 855.242 375.249 838.112 405.313 833.14C413.427 831.799 422.899 834.909 429.227 840.326C435.464 845.659 440.698 855.062 441.243 863.839C441.803 872.952 440.005 882.731 434.315 889.897C428.548 897.164 421.31 901.778 412.501 903.247C411.057 903.483 409.655 903.89 408.219 904.203C403.981 905.665 399.885 907.471 395.889 909.589C391.343 912.667 387.087 916.163 383.105 920.075C381.81 921.629 380.435 923.117 379.23 924.77C374.031 931.913 365.694 937.004 357.416 938.119C349.491 939.186 339.626 936.638 333.503 930.918C327.158 924.999 322.068 916.793 321.487 907.405C320.904 898.047 322.918 888.908 328.415 881.347Z" fill="#070707"/>
<mask id="mask1_8_541" style="mask-type:alpha" maskUnits="userSpaceOnUse" x="177" y="619" width="253" height="429">
<path d="M328.141 1047.32C330.134 859.713 371.924 721.41 429.736 619.664C360.243 619.664 213.612 654.411 183.031 793.398C152.45 932.386 267.029 1020.59 328.141 1047.32Z" fill="#C4C4C4"/>
</mask>
<g mask="url(#mask1_8_541)">
<ellipse rx="170.108" ry="169.916" transform="matrix(-1 0 0 1 399.274 845.263)" fill="#070707"/>
</g>
<path fill-rule="evenodd" clip-rule="evenodd" d="M382.082 772.531C429.861 772.531 473.19 752.972 504.883 721.228C536.932 752.972 580.748 772.531 629.064 772.531C689.929 772.531 743.652 741.492 775.709 694.156C811.445 741.79 867.875 772.531 931.37 772.531C959.342 772.531 985.942 766.566 1010.01 755.819C1032.3 813.591 1080.44 858.18 1139.97 874.893C1134.1 893.793 1130.93 913.914 1130.93 934.786C1130.93 991.203 1154.07 1042.13 1191.22 1078.31C1194.46 1225.81 1262.89 1302.31 1305.24 1324.46C1315.43 1332.74 1358.76 1330.19 1358.76 1330.19C1371.75 1270.44 1418.3 1159.07 1510.58 1103.97C1517.63 1104.75 1524.78 1105.15 1532.03 1105.15C1640.06 1105.15 1727.64 1016.16 1727.64 906.391C1727.64 849.645 1704.24 798.453 1666.7 762.237C1697.25 727.173 1715.79 681.066 1715.79 630.559C1715.79 525.5 1635.57 439.479 1533.98 432.284C1532.12 324.158 1446.15 237.092 1340.37 237.092C1311.99 237.092 1285.03 243.362 1260.73 254.627C1230.48 184.596 1161.63 135.683 1081.54 135.683C1037.45 135.683 996.777 150.5 964.067 175.499C929.344 122.145 870.14 87.0067 802.94 87.0067C721.823 87.0067 652.356 138.206 623.536 210.84C598.787 199.052 571.205 192.472 542.126 192.472C435.185 192.472 348.492 281.461 348.492 391.234C348.492 399.121 348.939 406.901 349.81 414.548C268.103 430.105 206.23 503.647 206.23 592.023C206.23 691.715 284.962 772.531 382.082 772.531Z" fill="#070707"/>
<path fill-rule="evenodd" clip-rule="evenodd" d="M145.427 1009.59L332.698 1002.86L334.607 962.768L144.574 971.419L145.427 1009.59Z" fill="#000722"/>
<path fill-rule="evenodd" clip-rule="evenodd" d="M813.446 770.819C917.297 787.183 989.427 893.611 970.889 1011.34C952.351 1129.08 851.009 1208.17 747.159 1191.81C643.308 1175.45 571.178 1069.02 589.716 951.284C608.254 833.55 709.596 754.456 813.446 770.819ZM1011.54 970.045C1009.56 853.024 931.77 750.809 819.385 733.101C692.095 713.044 573.723 809.796 552.371 945.4C552.367 945.427 552.363 945.454 552.359 945.481C548.43 943.899 544.145 942.376 539.576 941.047C525.683 937.006 508.19 934.529 489.978 938.331C487.652 890.608 473.778 846.787 451.202 812.181C423.139 769.162 380.881 739.54 330.637 736.91C280.47 734.285 234.633 759.213 200.981 798.785C167.319 838.369 144.883 893.504 140.62 954.745C136.356 1015.98 150.973 1073.18 179.014 1116.16C207.077 1159.18 249.335 1188.8 299.579 1191.43C349.746 1194.06 395.583 1169.13 429.235 1129.56C462.035 1090.99 484.177 1037.65 489.233 978.288C502.322 972.932 516.199 974.006 529.007 977.731C536.986 980.052 543.957 983.268 549.032 985.988C548.143 1105.74 626.729 1211.49 741.22 1229.53C868.51 1249.58 986.882 1152.83 1008.23 1017.23C1008.66 1014.49 1009.05 1011.76 1009.4 1009.03L1339.35 955.864C1401.24 947.299 1463.03 950.141 1508.66 965.465C1554.43 980.836 1578.58 1037.38 1579.31 1072.5L1617.11 1071.59C1615.91 1013.21 1573.52 946.981 1520.69 929.238C1467.76 911.464 1399.64 908.979 1334.1 918.073L1333.9 918.102L1011.54 970.045ZM419.603 833.243C442.643 868.561 455.618 917.285 451.875 971.034C448.134 1024.78 428.484 1071.92 400.574 1104.74C372.653 1137.58 337.432 1155.18 301.648 1153.31C265.941 1151.44 233.63 1130.38 210.613 1095.1C187.573 1059.78 174.599 1011.06 178.341 957.309C182.082 903.564 201.732 856.423 229.642 823.602C257.563 790.768 292.784 773.161 328.568 775.034C364.276 776.903 396.586 797.959 419.603 833.243Z" fill="#181818"/>
</g>
<defs>
<clipPath id="clip0_8_541">
<rect width="1903" height="1903" fill="white"/>
</clipPath>
<clipPath id="clip1_8_541">
<rect width="1706" height="1782" fill="white" transform="matrix(-1 0 0 1 1802 193)"/>
</clipPath>
</defs>
</svg>
