<svg width="1903" height="1994" viewBox="0 0 1903 1994" fill="none" xmlns="http://www.w3.org/2000/svg">
<path d="M821.705 451.974C821.705 451.974 409.462 516.476 440.723 1103.9C440.837 1106.07 393.058 1137.8 389.316 1141.18C356 1171.32 328.047 1209.91 315.824 1255.05C272.299 1415.79 427.912 1581.42 553.751 1625.39C600.754 1641.81 650.437 1649.78 700.217 1651.23C1023.83 1660.65 1452.27 1454.97 1474.28 1053.29C1475.06 1038.87 1475.26 1024.45 1474.89 1010.05C1472.94 933.782 1454.53 859.502 1426.79 790.534C1426.8 790.536 1246.69 343.808 821.705 451.974Z" fill="#8C5A2B"/>
<path opacity="0.3" d="M636.508 1138.79C636.508 1138.79 571.114 1076.57 520.488 1135.07Z" fill="#452811"/>
<path d="M1246.26 1448.91C1463.83 1557.96 1661.44 1284.29 1598.23 1130.5C1557.91 1032.41 1440.25 1024.81 1372.04 1114.44C1331.78 1167.34 1299.19 1234.96 1280.68 1299.63" fill="#8C5A2B"/>
<path opacity="0.3" d="M1425.58 1204.7C1397.57 1233.21 1375.04 1275.49 1347.37 1299.08C1352.5 1259.62 1360.67 1217.48 1379.84 1181.92C1399.31 1145.8 1434.69 1116.04 1470.71 1118.48C1515.34 1121.51 1552.08 1173.51 1556.79 1220.66C1553.97 1192.44 1497.24 1173.36 1475.58 1176.04C1441.65 1240 1428.47 1366.03 1428.47 1366.03C1400.24 1294.69 1411.7 1238.57 1425.58 1204.7Z" fill="#452811"/>
<path d="M565.47 1289.43C536.155 1290.24 508.044 1281.85 483.835 1256.68C471.168 1243.53 458.323 1236.28 440.147 1247.54C396.633 1274.49 386.388 1341.83 398.085 1386.98C410.926 1436.52 449.612 1476.47 494.194 1502.52C614.159 1572.61 706.176 1556.84 828.936 1512.03C925.564 1476.77 1056.2 1405.69 1023.09 1283.35C982.08 1131.89 805.348 1204.61 705.63 1245.47C663.29 1262.83 612.808 1288.11 565.47 1289.43Z" fill="white"/>
<mask id="mask0_8_541" style="mask-type:alpha" maskUnits="userSpaceOnUse" x="393" y="1191" width="636" height="360">
<path d="M565.47 1289.43C536.155 1290.24 508.045 1281.85 483.836 1256.68C471.169 1243.53 458.323 1236.28 440.148 1247.54C396.633 1274.49 386.388 1341.83 398.085 1386.98C410.927 1436.52 449.612 1476.47 494.195 1502.52C614.16 1572.61 706.176 1556.84 828.936 1512.03C925.564 1476.77 1056.2 1405.69 1023.09 1283.35C982.08 1131.89 805.348 1204.61 705.631 1245.47C663.29 1262.83 612.808 1288.11 565.47 1289.43Z" fill="white"/>
</mask>
<g mask="url(#mask0_8_541)">
<path fill-rule="evenodd" clip-rule="evenodd" d="M965.701 1457.67L840.115 1140.62L822.634 1147.55L948.219 1464.6L965.701 1457.67ZM707.65 1560.11L620.907 1227.43L602.712 1232.18L689.455 1564.86L707.65 1560.11ZM449.476 1479.79L497.34 1235.88L478.888 1232.26L431.024 1476.16L449.476 1479.79Z" fill="#D1D3D4"/>
</g>
<path d="M703.372 1067.37C753.581 1027.84 815.736 1036.4 841.379 1045.89C841.574 1045.96 841.701 1045.7 841.565 1045.54C772.52 965.856 720.709 1026.24 703.053 1067.15C702.971 1067.34 703.209 1067.5 703.372 1067.37Z" fill="#070707"/>
<path d="M459.829 1039.33C459.877 1064.29 471.172 1091.09 500.074 1088.01C524.329 1085.42 530.521 1053.57 530.491 1037.9C530.437 1010.47 516.7 984.567 496.661 984.529C475.108 984.488 459.78 1014.37 459.829 1039.33Z" fill="#070707"/>
<path d="M727.84 846.249C770.722 839.274 816.674 855.3 847.521 887.807C857.468 898.288 860.251 916.878 849.858 928.713C840.258 939.661 822.792 943.011 812.147 931.777C808.956 928.409 805.624 925.218 802.091 922.26C800.992 921.339 797.941 919.703 796.98 918.343C796.445 917.99 795.922 917.637 795.375 917.295C792.005 915.173 788.542 913.231 784.995 911.47C782.962 910.463 780.912 909.529 778.835 908.644C778.18 908.368 777.523 908.104 776.855 907.84C775.032 907.523 772.94 906.536 771.277 906.082C769.108 905.489 766.934 904.969 764.732 904.51C760.892 903.711 757.014 903.109 753.12 902.717C752.573 902.662 752.037 902.62 751.489 902.577C749.388 902.588 747.291 902.549 745.184 902.633C740.705 902.82 736.248 903.319 731.808 904.033C717.951 906.292 703.581 892.647 703.167 877.66C702.734 861.162 712.995 848.669 727.84 846.249Z" fill="#070707"/>
<path d="M439.943 895.513C455.515 874.08 478.396 860.016 503.08 855.934C509.742 854.833 517.519 857.387 522.715 861.834C527.836 866.213 532.134 873.932 532.581 881.139C533.041 888.621 531.564 896.65 526.893 902.534C522.158 908.5 516.215 912.288 508.982 913.494C507.797 913.688 506.646 914.022 505.467 914.279C501.987 915.479 498.623 916.963 495.343 918.702C491.611 921.229 488.116 924.099 484.846 927.311C483.783 928.587 482.654 929.808 481.665 931.165C477.396 937.031 470.551 941.21 463.754 942.126C457.247 943.002 449.147 940.909 444.12 936.213C438.911 931.354 434.731 924.616 434.255 916.908C433.776 909.225 435.429 901.721 439.943 895.513Z" fill="#070707"/>
<mask id="mask1_8_541" style="mask-type:alpha" maskUnits="userSpaceOnUse" x="316" y="681" width="208" height="352">
<path d="M439.985 1032.39C441.621 878.362 475.923 764.809 523.377 681.272C466.335 681.272 345.977 709.801 320.875 823.915C295.773 938.029 389.823 1010.45 439.985 1032.39Z" fill="#C4C4C4"/>
</mask>
<g mask="url(#mask1_8_541)">
<ellipse rx="139.629" ry="139.508" transform="matrix(-1 0 0 1 498.373 866.498)" fill="#070707"/>
</g>
<path fill-rule="evenodd" clip-rule="evenodd" d="M484.261 806.782C523.48 806.782 559.045 790.723 585.06 764.66C611.367 790.723 647.332 806.782 686.991 806.782C736.951 806.782 781.049 781.298 807.362 742.433C836.695 781.543 883.014 806.782 935.133 806.782C958.093 806.782 979.927 801.884 999.679 793.061C1017.98 840.494 1057.49 877.103 1106.36 890.825C1101.54 906.343 1098.94 922.863 1098.94 939.999C1098.94 986.321 1117.93 1028.13 1148.42 1057.84C1151.09 1178.94 1207.26 1241.75 1242.02 1259.94C1250.38 1266.73 1285.94 1264.64 1285.94 1264.64C1296.61 1215.59 1334.82 1124.15 1410.57 1078.91C1416.35 1079.55 1422.22 1079.88 1428.17 1079.88C1516.85 1079.88 1588.74 1006.81 1588.74 916.686C1588.74 870.096 1569.53 828.065 1538.72 798.33C1563.79 769.542 1579 731.686 1579 690.217C1579 603.96 1513.16 533.333 1429.77 527.426C1428.25 438.65 1357.68 367.166 1270.85 367.166C1247.55 367.166 1225.42 372.314 1205.48 381.563C1180.65 324.064 1124.14 283.905 1058.39 283.905C1022.21 283.905 988.821 296.07 961.972 316.596C933.47 272.79 884.873 243.94 829.713 243.94C763.13 243.94 706.11 285.977 682.454 345.612C662.139 335.933 639.499 330.531 615.63 330.531C527.85 330.531 456.689 403.594 456.689 493.722C456.689 500.198 457.057 506.586 457.771 512.864C390.704 525.637 339.917 586.018 339.917 658.578C339.917 740.429 404.542 806.782 484.261 806.782Z" fill="#070707"/>
<path fill-rule="evenodd" clip-rule="evenodd" d="M289.636 1001.03L443.396 995.502L444.963 962.585L288.936 969.687L289.636 1001.03Z" fill="#000722"/>
<path fill-rule="evenodd" clip-rule="evenodd" d="M838.118 804.987C923.386 818.422 982.609 905.804 967.388 1002.47C952.167 1099.13 868.959 1164.07 783.692 1150.64C698.425 1137.2 639.202 1049.82 654.423 953.156C669.644 856.491 752.851 791.552 838.118 804.987ZM1000.77 968.56C999.138 872.48 935.268 788.558 842.995 774.019C738.482 757.551 641.292 836.989 623.761 948.325C623.757 948.347 623.754 948.369 623.75 948.391C620.524 947.092 617.007 945.842 613.255 944.751C601.848 941.433 587.485 939.399 572.532 942.521C570.622 903.338 559.231 867.36 540.695 838.947C517.654 803.627 482.957 779.306 441.704 777.147C400.514 774.991 362.879 795.458 335.249 827.948C307.611 860.449 289.189 905.717 285.689 955.997C282.188 1006.27 294.19 1053.24 317.212 1088.53C340.254 1123.85 374.95 1148.17 416.203 1150.33C457.393 1152.48 495.029 1132.02 522.658 1099.53C549.589 1067.86 567.769 1024.07 571.921 975.327C582.667 970.93 594.061 971.811 604.577 974.87C611.129 976.776 616.852 979.416 621.019 981.65C620.289 1079.97 684.812 1166.79 778.816 1181.6C883.329 1198.07 980.519 1118.64 998.05 1007.3C998.404 1005.05 998.723 1002.81 999.007 1000.57L1269.91 956.916C1320.73 949.884 1371.46 952.217 1408.93 964.799C1446.51 977.419 1466.34 1023.85 1466.93 1052.68L1497.97 1051.93C1496.98 1004 1462.18 949.623 1418.8 935.055C1375.35 920.462 1319.42 918.422 1265.61 925.889L1265.44 925.912L1000.77 968.56ZM514.75 856.239C533.667 885.237 544.32 925.241 541.248 969.372C538.176 1013.5 522.042 1052.2 499.126 1079.15C476.201 1106.11 447.283 1120.56 417.902 1119.03C388.584 1117.49 362.055 1100.2 343.157 1071.24C324.24 1042.24 313.587 1002.23 316.66 958.103C319.732 913.976 335.865 875.271 358.781 848.324C381.706 821.366 410.625 806.91 440.005 808.448C469.323 809.982 495.852 827.27 514.75 856.239Z" fill="#181818"/>
</svg>
